<?xml version="1.0" encoding="UTF-8"?>
<!DOCTYPE svg PUBLIC "-//W3C//DTD SVG 1.1//EN" "http://www.w3.org/Graphics/SVG/1.1/DTD/svg11.dtd">
<!-- Creator: CorelDRAW 2019 (64 Bit) -->
<svg xmlns="http://www.w3.org/2000/svg" xml:space="preserve" width="55.348mm" height="66.6735mm" version="1.1" style="shape-rendering:geometricPrecision; text-rendering:geometricPrecision; image-rendering:optimizeQuality; fill-rule:evenodd; clip-rule:evenodd"
viewBox="0 0 197.76 238.23"
 xmlns:xlink="http://www.w3.org/1999/xlink"
 xmlns:xodm="http://www.corel.com/coreldraw/odm/2003">
 <defs>
  <style type="text/css">
   <![CDATA[
    .fil0 {fill:#1C1B33;fill-rule:nonzero}
    .fil1 {fill:#F2E205;fill-rule:nonzero}
   ]]>
  </style>
 </defs>
 <g id="Camada_x0020_1">
  <metadata id="CorelCorpID_0Corel-Layer"/>
  <g id="_2811910328256">
   <path class="fil0" d="M178.99 82.11c0,45.35 -36.76,82.12 -82.12,82.12 -45.35,0 -82.11,-36.77 -82.11,-82.12 0,-45.35 36.76,-82.11 82.11,-82.11 45.35,0 82.12,36.76 82.12,82.11z"/>
   <path class="fil1" d="M132.78 30.38c-8.34,0.29 -15.62,4.89 -21.04,11.25 -6,6.98 -9.99,15.24 -12.87,23.69 -5.15,-4.22 -9.11,-9.68 -17.37,-12.05 -6.38,-1.83 -13.08,-1.08 -19.25,3.51 -2.92,2.18 -4.93,5.47 -5.89,8.58 -2.48,8.05 2.6,15.22 4.91,17.79l5.05 5.41c1.04,1.06 3.55,3.83 2.32,7.79 -1.32,4.32 -6.52,7.1 -11.85,5.46 -2.38,-0.73 -5.8,-2.5 -5.04,-5 0.31,-1.02 1.05,-1.79 1.44,-2.67 0.36,-0.76 0.53,-1.33 0.64,-1.67 0.97,-3.18 -0.36,-7.31 -3.76,-8.36 -3.18,-0.97 -6.43,-0.2 -7.69,3.89 -1.43,4.65 0.79,13.08 12.71,16.75 13.96,4.3 25.77,-3.31 27.44,-13.22 1.06,-6.21 -1.75,-10.82 -6.88,-16.75l-4.19 -4.63c-2.53,-2.53 -3.4,-6.85 -0.78,-10.16 2.21,-2.8 5.36,-3.99 10.53,-2.59 7.54,2.05 10.9,7.28 16.5,11.5 -2.31,7.59 -3.83,15.21 -5.19,22.05l-0.84 5.1c-4.01,21.01 -7.07,32.56 -15.02,39.18 -1.6,1.14 -3.89,2.85 -7.34,2.97 -1.81,0.05 -2.4,-1.19 -2.42,-1.74 -0.04,-1.27 1.03,-1.85 1.74,-2.42 1.06,-0.58 2.67,-1.54 2.56,-4.62 -0.11,-3.64 -3.13,-6.79 -7.48,-6.65 -3.26,0.11 -8.24,3.18 -8.05,8.8 0.19,5.81 5.6,10.16 13.76,9.88 4.36,-0.15 14.1,-1.92 23.7,-13.33 11.17,-13.08 14.3,-28.08 16.65,-39.05l2.63 -14.49c1.45,0.17 3.01,0.29 4.71,0.33 13.92,0.3 20.87,-6.91 20.98,-12.15 0.07,-3.17 -2.08,-6.3 -5.09,-6.22 -2.15,0.06 -4.86,1.5 -5.51,4.47 -0.64,2.92 4.43,5.56 0.47,8.13 -2.81,1.82 -7.85,3.1 -14.95,2.06l1.29 -7.13c2.63,-13.53 5.88,-30.16 18.21,-30.57 0.9,-0.04 4.18,0.04 4.26,2.21 0.02,0.72 -0.16,0.91 -1.01,2.57 -0.87,1.29 -1.19,2.4 -1.15,3.67 0.12,3.45 2.74,5.72 6.54,5.59 5.09,-0.17 6.54,-5.12 6.46,-7.66 -0.21,-5.98 -6.51,-9.76 -14.84,-9.48z"/>
   <g>
    <path class="fil0" d="M127.36 222.93c5.88,0 8.51,-5.35 8.51,-10.22 0,-5.19 -3.15,-10.22 -8.51,-10.22 -5.4,0 -8.56,5.03 -8.56,10.22 0,4.87 2.62,10.22 8.56,10.22zm0 -24.51c8.29,0 13.86,5.99 13.86,14.28 0,7.82 -5.67,14.29 -13.86,14.29 -8.24,0 -13.91,-6.47 -13.91,-14.29 0,-8.29 5.56,-14.28 13.91,-14.28z"/>
    <path class="fil0" d="M112.76 200.96l0 -1.9 -7.22 0 0 -2.59c0,-3.69 0.53,-6.48 4.87,-6.48 0.08,0 0.17,0.01 0.25,0.01 0.01,0 0.01,-0.01 0.02,-0.01 1.2,0.09 2.2,-0.89 2.27,-2.09l0.09 -1.65c-1.02,-0.16 -2.09,-0.32 -3.37,-0.32 -7.43,0 -9.15,4.34 -9.15,10.97l0 2.17 -6.42 0 0 2.12c0.16,1.1 1.1,1.94 2.25,1.94 0.01,0 0.01,0.01 0.02,0.01l4.16 0 0 23.22 2.77 0c0.01,0 0,-0 0.01,-0 1.15,0 2.09,-0.86 2.25,-1.97l0 -21.25 5.03 0c1.19,-0.04 2.14,-0.99 2.19,-2.17z"/>
    <path class="fil0" d="M45.77 199.06c-0.01,0 -0.01,0.01 -0.03,0.01 -1.06,0 -2.09,0.73 -2.54,1.71l-6.92 20.86 -0.11 0 -6.77 -20.85c-0.44,-0.99 -1.47,-1.72 -2.54,-1.72 -0.01,0 -0.01,-0.01 -0.03,-0.01l-3.51 0 9.26 25.47c0.32,0.91 0.97,2.3 0.97,2.89 0,0.53 -1.5,6.74 -6,6.74 -0.11,0 -0.22,-0.01 -0.33,-0.02 -1.15,-0.06 -2.01,0.74 -2.21,1.97l-0.14 1.74c0.91,0.16 1.82,0.37 3.43,0.37 6.63,0 8.61,-6.05 10.49,-11.29l10.06 -27.88 -3.09 0z"/>
    <path class="fil0" d="M13.79 204.61c-4.16,-2.12 -8.7,-3.57 -8.78,-7.84 0.01,-4.54 4.19,-5.74 7.4,-5.73 0.01,-0 0.03,-0 0.04,-0 1.4,0 2.51,0.14 3.6,0.38 0.02,0 0.01,-0.02 0.03,-0.02 1.15,0.08 2.12,-0.82 2.26,-1.95l0.09 -1.65c-2.11,-0.52 -4.31,-0.79 -6.23,-0.79 -7,0.04 -12.19,3.56 -12.2,10.27 0.01,5.87 3.97,8.15 8.22,10.21 4.17,2 8.74,3.66 8.78,8.5 -0.03,5.06 -4.9,6.92 -8.26,6.93 -1.97,-0.01 -4.1,-0.5 -5.9,-1.06 -1.13,-0.19 -2.05,0.81 -2.2,2.12l-0.15 1.47c2.47,0.8 5.01,1.5 7.55,1.5 0,0 0,0 0.01,0 0.01,0 0.01,0 0.02,0 7.83,-0.06 13.92,-3.18 13.94,-11.29 -0.01,-6.26 -4,-8.88 -8.23,-11.04z"/>
    <path class="fil0" d="M89.87 226.35c0,0 0,-0 0.01,-0 1.09,0 1.99,-0.76 2.22,-1.78l0 -15.72c0,-5.94 -2.51,-10.44 -9.47,-10.44 -2.46,0 -6.58,1.39 -8.45,5.3 -1.45,-3.69 -4.6,-5.3 -7.76,-5.3 -4.02,0 -6.74,1.45 -8.67,4.6l-0.11 0 0 -1.7c-0.02,-1.25 -1.03,-2.26 -2.28,-2.26 -0.01,0 -0.01,-0.01 -0.02,-0.01l-2.41 0 0 27.29 2.72 0c0,0 0,-0 0.01,-0 1.26,0 2.28,-1.02 2.28,-2.28 0,-0.04 0.01,-0.05 0.02,-0.07l0 -11.4c0,-5.08 2.03,-10.11 7.17,-10.11 4.07,0 4.87,4.23 4.87,7.6l0 16.27 2.76 0c0,0 0,-0 0.01,-0 1.19,0 2.15,-0.91 2.26,-2.07l0 -11.67c0,-5.08 2.03,-10.11 7.17,-10.11 4.07,0 4.87,4.23 4.87,7.6l0 16.27 2.8 0z"/>
    <path class="fil0" d="M167.59 226.35c0.01,0 0.01,-0 0.01,-0 1.22,0 2.21,-0.97 2.27,-2.18l0 -14.03c0,-7.33 -3.16,-11.72 -10.22,-11.72 -3.8,0 -7.43,1.87 -8.93,4.98l-0.11 0 0 -2.04c0,-0 -0,-0 -0,-0.01 0,-1.26 -1.02,-2.28 -2.28,-2.28 -0.01,0 -0.02,-0.01 -0.03,-0.01l-2.56 0 0 27.29 2.77 0c0,0 0,-0 0.01,-0 1.19,0 2.17,-0.93 2.26,-2.1l0 -10.53c0,-6.63 2.57,-11.23 8.29,-11.23 4.39,0.27 5.78,3.37 5.78,9.74l0 14.13 2.75 0z"/>
    <path class="fil0" d="M194.67 199.06c-0.01,0 -0.01,0.01 -0.02,0.01 -1.06,0 -2.09,0.73 -2.53,1.71l-6.92 20.86 -0.11 0 -6.77 -20.85c-0.44,-0.99 -1.47,-1.72 -2.54,-1.72 -0.01,0 -0.01,-0.01 -0.02,-0.01l-3.51 0 9.26 25.47c0.32,0.91 0.97,2.3 0.97,2.89 0,0.53 -1.5,6.74 -6,6.74 -0.11,0 -0.22,-0.01 -0.34,-0.02 -1.14,-0.06 -2.01,0.74 -2.2,1.97l-0.13 1.74c0.91,0.16 1.82,0.37 3.42,0.37 6.64,0 8.62,-6.05 10.49,-11.29l10.06 -27.88 -3.1 0z"/>
   </g>
  </g>
 </g>
</svg>
